{
  "accessors": [
    {
      "bufferView": 2,
      "componentType": 5126,
      "count": 65532,
      "max": [
        2.557713270187378,
        -3.26114559173584,
        0.04198554903268814
      ],
      "min": [
        -1.8146941661834717,
        -18.044904708862305,
        -4.208930969238281
      ],
      "type": "VEC3"
    },
    {
      "bufferView": 2,
      "byteOffset": 786384,
      "componentType": 5126,
      "count": 65532,
      "max": [
        0.9999985694885254,
        0.9998950958251953,
        0.9999796748161316
      ],
      "min": [
        -0.9999509453773499,
        -0.9999750852584839,
        -0.9999933242797852
      ],
      "type": "VEC3"
    },
    {
      "bufferView": 1,
      "componentType": 5126,
      "count": 65532,
      "max": [
        0.999737024307251,
        0.8658450245857239
      ],
      "min": [
        0.00012199999764561653,
        0.016496000811457634
      ],
      "type": "VEC2"
    },
    {
      "bufferView": 0,
      "componentType": 5125,
      "count": 309435,
      "type": "SCALAR"
    },
    {
      "bufferView": 2,
      "byteOffset": 1572768,
      "componentType": 5126,
      "count": 65532,
      "max": [
        2.5812487602233887,
        -5.142247676849365,
        0.49399274587631226
      ],
      "min": [
        -2.283785343170166,
        -17.955379486083984,
        -3.918748617172241
      ],
      "type": "VEC3"
    },
    {
      "bufferView": 2,
      "byteOffset": 2359152,
      "componentType": 5126,
      "count": 65532,
      "max": [
        0.9999687671661377,
        0.9997460246086121,
        0.9999992847442627
      ],
      "min": [
        -0.9999957084655762,
        -0.9999604821205139,
        -0.9999855160713196
      ],
      "type": "VEC3"
    },
    {
      "bufferView": 1,
      "byteOffset": 524256,
      "componentType": 5126,
      "count": 65532,
      "max": [
        0.9982179999351501,
        0.8660889863967896
      ],
      "min": [
        0.00012199999764561653,
        0.00030399998649954796
      ],
      "type": "VEC2"
    },
    {
      "bufferView": 0,
      "byteOffset": 1237740,
      "componentType": 5125,
      "count": 303477,
      "type": "SCALAR"
    },
    {
      "bufferView": 2,
      "byteOffset": 3145536,
      "componentType": 5126,
      "count": 65532,
      "max": [
        2.4709694385528564,
        -3.26114559173584,
        0.10041207075119019
      ],
      "min": [
        -2.255492687225342,
        -15.150317192077637,
        -4.460322380065918
      ],
      "type": "VEC3"
    },
    {
      "bufferView": 2,
      "byteOffset": 3931920,
      "componentType": 5126,
      "count": 65532,
      "max": [
        0.999998152256012,
        0.999569296836853,
        0.9999982118606567
      ],
      "min": [
        -0.9999995827674866,
        -0.9999590516090393,
        -0.9999991059303284
      ],
      "type": "VEC3"
    },
    {
      "bufferView": 1,
      "byteOffset": 1048512,
      "componentType": 5126,
      "count": 65532,
      "max": [
        0.9997310042381287,
        0.8660889863967896
      ],
      "min": [
        0.00012199999764561653,
        0.00021399999968707561
      ],
      "type": "VEC2"
    },
    {
      "bufferView": 0,
      "byteOffset": 2451648,
      "componentType": 5125,
      "count": 297201,
      "type": "SCALAR"
    },
    {
      "bufferView": 2,
      "byteOffset": 4718304,
      "componentType": 5126,
      "count": 65532,
      "max": [
        2.2497498989105225,
        -3.310084104537964,
        0.04248034581542015
      ],
      "min": [
        -2.344783067703247,
        -18.655298233032227,
        -4.455808162689209
      ],
      "type": "VEC3"
    },
    {
      "bufferView": 2,
      "byteOffset": 5504688,
      "componentType": 5126,
      "count": 65532,
      "max": [
        0.9999970197677612,
        0.9999368190765381,
        0.999946117401123
      ],
      "min": [
        -0.999999463558197,
        -0.9999991655349731,
        -0.9999994039535522
      ],
      "type": "VEC3"
    },
    {
      "bufferView": 1,
      "byteOffset": 1572768,
      "componentType": 5126,
      "count": 65532,
      "max": [
        0.99965900182724,
        0.8660889863967896
      ],
      "min": [
        0.00012199999764561653,
        0.003386999946087599
      ],
      "type": "VEC2"
    },
    {
      "bufferView": 0,
      "byteOffset": 3640452,
      "componentType": 5125,
      "count": 270501,
      "type": "SCALAR"
    },
    {
      "bufferView": 2,
      "byteOffset": 6291072,
      "componentType": 5126,
      "count": 65532,
      "max": [
        2.3756206035614014,
        -3.3096768856048584,
        0.3763953149318695
      ],
      "min": [
        -2.3313841819763184,
        -18.632457733154297,
        -4.460322380065918
      ],
      "type": "VEC3"
    },
    {
      "bufferView": 2,
      "byteOffset": 7077456,
      "componentType": 5126,
      "count": 65532,
      "max": [
        0.9999883770942688,
        0.9999614953994751,
        0.9999856352806091
      ],
      "min": [
        -0.9999995827674866,
        -0.9999750852584839,
        -0.9999987483024597
      ],
      "type": "VEC3"
    },
    {
      "bufferView": 1,
      "byteOffset": 2097024,
      "componentType": 5126,
      "count": 65532,
      "max": [
        0.9997770190238953,
        0.8660889863967896
      ],
      "min": [
        0.00012199999764561653,
        0.0002300000051036477
      ],
      "type": "VEC2"
    },
    {
      "bufferView": 0,
      "byteOffset": 4722456,
      "componentType": 5125,
      "count": 249720,
      "type": "SCALAR"
    },
    {
      "bufferView": 2,
      "byteOffset": 7863840,
      "componentType": 5126,
      "count": 15377,
      "max": [
        2.5775809288024902,
        -9.134087562561035,
        -1.7865877151489258
      ],
      "min": [
        -2.250337839126587,
        -17.336042404174805,
        -3.629215717315674
      ],
      "type": "VEC3"
    },
    {
      "bufferView": 2,
      "byteOffset": 8048364,
      "componentType": 5126,
      "count": 15377,
      "max": [
        0.9998587369918823,
        0.9999614953994751,
        0.9964979290962219
      ],
      "min": [
        -0.9999404549598694,
        -0.9998869299888611,
        -0.9999252557754517
      ],
      "type": "VEC3"
    },
    {
      "bufferView": 1,
      "byteOffset": 2621280,
      "componentType": 5126,
      "count": 15377,
      "max": [
        0.9988240003585815,
        0.8658450245857239
      ],
      "min": [
        0.00012199999764561653,
        0.09508799761533737
      ],
      "type": "VEC2"
    },
    {
      "bufferView": 0,
      "byteOffset": 5721336,
      "componentType": 5125,
      "count": 53487,
      "type": "SCALAR"
    },
    {
      "bufferView": 2,
      "byteOffset": 8232888,
      "componentType": 5126,
      "count": 6211,
      "max": [
        2.436147451400757,
        -3.261143684387207,
        -0.02558104507625103
      ],
      "min": [
        -1.9232916831970215,
        -3.26114559173584,
        -4.425700664520264
      ],
      "type": "VEC3"
    },
    {
      "bufferView": 2,
      "byteOffset": 8307420,
      "componentType": 5126,
      "count": 6211,
      "max": [
        0.9999240636825562,
        1.0,
        0.9999401569366455
      ],
      "min": [
        -0.9999653100967407,
        -0.21211737394332886,
        -0.9999935626983643
      ],
      "type": "VEC3"
    },
    {
      "bufferView": 1,
      "byteOffset": 2744296,
      "componentType": 5126,
      "count": 6211,
      "max": [
        0.0,
        0.0
      ],
      "min": [
        0.0,
        0.0
      ],
      "type": "VEC2"
    },
    {
      "bufferView": 0,
      "byteOffset": 5935284,
      "componentType": 5125,
      "count": 34740,
      "type": "SCALAR"
    }
  ],
  "asset": {
    "extras": {
      "author": "noe-3d.at (https://sketchfab.com/www.noe-3d.at)",
      "license": "CC-BY-NC-4.0 (http://creativecommons.org/licenses/by-nc/4.0/)",
      "source": "https://sketchfab.com/3d-models/herkules-407623922d6748c5a8e4ccd155092771",
      "title": "Herkules"
    },
    "generator": "Sketchfab-10.47.0",
    "version": "2.0"
  },
  "bufferViews": [
    {
      "buffer": 0,
      "byteLength": 6074244,
      "name": "floatBufferViews",
      "target": 34963
    },
    {
      "buffer": 0,
      "byteLength": 2793984,
      "byteOffset": 6074244,
      "byteStride": 8,
      "name": "floatBufferViews",
      "target": 34962
    },
    {
      "buffer": 0,
      "byteLength": 8381952,
      "byteOffset": 8868228,
      "byteStride": 12,
      "name": "floatBufferViews",
      "target": 34962
    }
  ],
  "buffers": [
    {
      "byteLength": 17250180,
      "uri": "scene.bin"
    }
  ],
  "images": [
    {
      "uri": "textures/Herkules_O_Material_u1_v1_baseColor.png"
    }
  ],
  "materials": [
    {
      "doubleSided": true,
      "name": "Herkules_O_Material_u1_v1",
      "pbrMetallicRoughness": {
        "baseColorTexture": {
          "index": 0
        },
        "metallicFactor": 0.0
      }
    }
  ],
  "meshes": [
    {
      "name": "Object_0",
      "primitives": [
        {
          "attributes": {
            "NORMAL": 1,
            "POSITION": 0,
            "TEXCOORD_0": 2
          },
          "indices": 3,
          "material": 0,
          "mode": 4
        }
      ]
    },
    {
      "name": "Object_1",
      "primitives": [
        {
          "attributes": {
            "NORMAL": 5,
            "POSITION": 4,
            "TEXCOORD_0": 6
          },
          "indices": 7,
          "material": 0,
          "mode": 4
        }
      ]
    },
    {
      "name": "Object_2",
      "primitives": [
        {
          "attributes": {
            "NORMAL": 9,
            "POSITION": 8,
            "TEXCOORD_0": 10
          },
          "indices": 11,
          "material": 0,
          "mode": 4
        }
      ]
    },
    {
      "name": "Object_3",
      "primitives": [
        {
          "attributes": {
            "NORMAL": 13,
            "POSITION": 12,
            "TEXCOORD_0": 14
          },
          "indices": 15,
          "material": 0,
          "mode": 4
        }
      ]
    },
    {
      "name": "Object_4",
      "primitives": [
        {
          "attributes": {
            "NORMAL": 17,
            "POSITION": 16,
            "TEXCOORD_0": 18
          },
          "indices": 19,
          "material": 0,
          "mode": 4
        }
      ]
    },
    {
      "name": "Object_5",
      "primitives": [
        {
          "attributes": {
            "NORMAL": 21,
            "POSITION": 20,
            "TEXCOORD_0": 22
          },
          "indices": 23,
          "material": 0,
          "mode": 4
        }
      ]
    },
    {
      "name": "Object_6",
      "primitives": [
        {
          "attributes": {
            "NORMAL": 25,
            "POSITION": 24,
            "TEXCOORD_0": 26
          },
          "indices": 27,
          "material": 0,
          "mode": 4
        }
      ]
    }
  ],
  "nodes": [
    {
      "children": [
        1
      ],
      "matrix": [
        0.14073809272563942,
        9.666027812660661e-05,
        -0.006237026383992261,
        0.0,
        0.00010545819896613448,
        -0.1408760870455783,
        0.00019638594212531552,
        0.0,
        -0.006236883637038448,
        -0.00020086229897910837,
        -0.14073799196308379,
        0.0,
        -0.07947960495948792,
        -12.944282531738283,
        8.997517585754391,
        1.0
      ],
      "name": "Sketchfab_model"
    },
    {
      "children": [
        2,
        3,
        4,
        5,
        6,
        7,
        8
      ],
      "name": "Herkules_CN.obj.cleaner.materialmerger.gles"
    },
    {
      "mesh": 0,
      "name": "Object_2"
    },
    {
      "mesh": 1,
      "name": "Object_3"
    },
    {
      "mesh": 2,
      "name": "Object_4"
    },
    {
      "mesh": 3,
      "name": "Object_5"
    },
    {
      "mesh": 4,
      "name": "Object_6"
    },
    {
      "mesh": 5,
      "name": "Object_7"
    },
    {
      "mesh": 6,
      "name": "Object_8"
    }
  ],
  "samplers": [
    {
      "magFilter": 9729,
      "minFilter": 9987,
      "wrapS": 10497,
      "wrapT": 10497
    }
  ],
  "scene": 0,
  "scenes": [
    {
      "name": "Sketchfab_Scene",
      "nodes": [
        0
      ]
    }
  ],
  "textures": [
    {
      "sampler": 0,
      "source": 0
    }
  ]
}
