{
  "accessors": [
    {
      "bufferView": 2,
      "componentType": 5126,
      "count": 65532,
      "max": [
        1.6745952367782593,
        -19.84783935546875,
        2.8141777515411377
      ],
      "min": [
        -2.3276433944702148,
        -37.731174468994141,
        -5.7231111526489258
      ],
      "type": "VEC3"
    },
    {
      "bufferView": 2,
      "byteOffset": 786384,
      "componentType": 5126,
      "count": 65532,
      "max": [
        0.99970394372940063,
        0.99985802173614502,
        0.99999725818634033
      ],
      "min": [
        -0.99997776746749878,
        -0.99999004602432251,
        -0.99999642372131348
      ],
      "type": "VEC3"
    },
    {
      "bufferView": 1,
      "componentType": 5126,
      "count": 65532,
      "max": [
        0.99973297119140625,
        0.92639201879501343
      ],
      "min": [
        0.00012199999764561653,
        0.18645800650119781
      ],
      "type": "VEC2"
    },
    {
      "bufferView": 0,
      "componentType": 5125,
      "count": 301845,
      "max": [
        65531
      ],
      "min": [
        0
      ],
      "type": "SCALAR"
    },
    {
      "bufferView": 2,
      "byteOffset": 1572768,
      "componentType": 5126,
      "count": 65532,
      "max": [
        2.3203794956207275,
        -19.84783935546875,
        2.810030460357666
      ],
      "min": [
        -2.3981883525848389,
        -37.250179290771484,
        -5.0720868110656738
      ],
      "type": "VEC3"
    },
    {
      "bufferView": 2,
      "byteOffset": 2359152,
      "componentType": 5126,
      "count": 65532,
      "max": [
        0.99999982118606567,
        0.99999994039535522,
        0.99999707937240601
      ],
      "min": [
        -0.99999988079071045,
        -0.99999004602432251,
        -0.99999511241912842
      ],
      "type": "VEC3"
    },
    {
      "bufferView": 1,
      "byteOffset": 524256,
      "componentType": 5126,
      "count": 65532,
      "max": [
        0.99880897998809814,
        0.92639201879501343
      ],
      "min": [
        0.0010989999864250422,
        0.063732996582984924
      ],
      "type": "VEC2"
    },
    {
      "bufferView": 0,
      "byteOffset": 1207380,
      "componentType": 5125,
      "count": 306309,
      "max": [
        65531
      ],
      "min": [
        0
      ],
      "type": "SCALAR"
    },
    {
      "bufferView": 2,
      "byteOffset": 3145536,
      "componentType": 5126,
      "count": 65532,
      "max": [
        2.294550895690918,
        -19.87763786315918,
        3.2401103973388672
      ],
      "min": [
        -2.0896990299224854,
        -37.008758544921875,
        -5.7618060111999512
      ],
      "type": "VEC3"
    },
    {
      "bufferView": 2,
      "byteOffset": 3931920,
      "componentType": 5126,
      "count": 65532,
      "max": [
        0.99999850988388062,
        0.99968791007995605,
        0.99999743700027466
      ],
      "min": [
        -0.99999988079071045,
        -0.99999940395355225,
        -0.99999916553497314
      ],
      "type": "VEC3"
    },
    {
      "bufferView": 1,
      "byteOffset": 1048512,
      "componentType": 5126,
      "count": 65532,
      "max": [
        0.99958902597427368,
        0.92639201879501343
      ],
      "min": [
        0.00012199999764561653,
        0.062343999743461609
      ],
      "type": "VEC2"
    },
    {
      "bufferView": 0,
      "byteOffset": 2432616,
      "componentType": 5125,
      "count": 291951,
      "max": [
        65531
      ],
      "min": [
        0
      ],
      "type": "SCALAR"
    },
    {
      "bufferView": 2,
      "byteOffset": 4718304,
      "componentType": 5126,
      "count": 65532,
      "max": [
        2.2043750286102295,
        -19.941326141357422,
        3.2414147853851318
      ],
      "min": [
        -2.0896990299224854,
        -37.731174468994141,
        -4.7241058349609375
      ],
      "type": "VEC3"
    },
    {
      "bufferView": 2,
      "byteOffset": 5504688,
      "componentType": 5126,
      "count": 65532,
      "max": [
        0.99999809265136719,
        0.99990320205688477,
        0.99999725818634033
      ],
      "min": [
        -0.99999701976776123,
        -0.99995183944702148,
        -0.99999803304672241
      ],
      "type": "VEC3"
    },
    {
      "bufferView": 1,
      "byteOffset": 1572768,
      "componentType": 5126,
      "count": 65532,
      "max": [
        0.99967700242996216,
        0.9266359806060791
      ],
      "min": [
        0.00012199999764561653,
        0.062917999923229218
      ],
      "type": "VEC2"
    },
    {
      "bufferView": 0,
      "byteOffset": 3600420,
      "componentType": 5125,
      "count": 289110,
      "max": [
        65531
      ],
      "min": [
        0
      ],
      "type": "SCALAR"
    },
    {
      "bufferView": 2,
      "byteOffset": 6291072,
      "componentType": 5126,
      "count": 46096,
      "max": [
        2.3218598365783691,
        -19.880733489990234,
        2.7829861640930176
      ],
      "min": [
        -1.4806516170501709,
        -35.832405090332031,
        -4.7708072662353516
      ],
      "type": "VEC3"
    },
    {
      "bufferView": 2,
      "byteOffset": 6844224,
      "componentType": 5126,
      "count": 46096,
      "max": [
        0.99999678134918213,
        0.99964058399200439,
        0.99993228912353516
      ],
      "min": [
        -0.99998962879180908,
        -0.99999231100082397,
        -0.99996829032897949
      ],
      "type": "VEC3"
    },
    {
      "bufferView": 1,
      "byteOffset": 2097024,
      "componentType": 5126,
      "count": 46096,
      "max": [
        0.99941098690032959,
        0.9266359806060791
      ],
      "min": [
        0.00012199999764561653,
        0.14479200541973114
      ],
      "type": "VEC2"
    },
    {
      "bufferView": 0,
      "byteOffset": 4756860,
      "componentType": 5125,
      "count": 180438,
      "max": [
        46095
      ],
      "min": [
        0
      ],
      "type": "SCALAR"
    },
    {
      "bufferView": 2,
      "byteOffset": 7397376,
      "componentType": 5126,
      "count": 9121,
      "max": [
        2.2596025466918945,
        -19.84783935546875,
        2.8141777515411377
      ],
      "min": [
        -2.133817195892334,
        -19.84783935546875,
        -3.9082198143005371
      ],
      "type": "VEC3"
    },
    {
      "bufferView": 2,
      "byteOffset": 7506828,
      "componentType": 5126,
      "count": 9121,
      "max": [
        0.9999886155128479,
        1,
        0.99996012449264526
      ],
      "min": [
        -0.99984800815582275,
        -0.6966557502746582,
        -0.99994862079620361
      ],
      "type": "VEC3"
    },
    {
      "bufferView": 1,
      "byteOffset": 2465792,
      "componentType": 5126,
      "count": 9121,
      "max": [
        0,
        0
      ],
      "min": [
        0,
        0
      ],
      "type": "VEC2"
    },
    {
      "bufferView": 0,
      "byteOffset": 5478612,
      "componentType": 5125,
      "count": 52263,
      "max": [
        9120
      ],
      "min": [
        0
      ],
      "type": "SCALAR"
    }
  ],
  "asset": {
    "extras": {
      "author": "noe-3d.at (https://sketchfab.com/www.noe-3d.at)",
      "license": "CC-BY-NC-4.0 (http://creativecommons.org/licenses/by-nc/4.0/)",
      "source": "https://sketchfab.com/3d-models/hl-florian-b3964327163644549277b2192e3b18b1",
      "title": "Hl. Florian"
    },
    "generator": "Sketchfab-10.10.1-rc1",
    "version": "2.0"
  },
  "bufferViews": [
    {
      "buffer": 0,
      "byteLength": 5687664,
      "byteOffset": 0,
      "name": "floatBufferViews",
      "target": 34963
    },
    {
      "buffer": 0,
      "byteLength": 2538760,
      "byteOffset": 5687664,
      "byteStride": 8,
      "name": "floatBufferViews",
      "target": 34962
    },
    {
      "buffer": 0,
      "byteLength": 7616280,
      "byteOffset": 8226424,
      "byteStride": 12,
      "name": "floatBufferViews",
      "target": 34962
    }
  ],
  "buffers": [
    {
      "byteLength": 15842704,
      "uri": "scene.bin"
    }
  ],
  "images": [
    {
      "uri": "textures/Florian_O_Material_u1_v1_baseColor.png"
    }
  ],
  "materials": [
    {
      "doubleSided": true,
      "emissiveFactor": [
        0,
        0,
        0
      ],
      "name": "Florian_O_Material_u1_v1",
      "pbrMetallicRoughness": {
        "baseColorFactor": [
          1,
          1,
          1,
          1
        ],
        "baseColorTexture": {
          "index": 0,
          "texCoord": 0
        },
        "metallicFactor": 0,
        "roughnessFactor": 1
      }
    }
  ],
  "meshes": [
    {
      "primitives": [
        {
          "attributes": {
            "NORMAL": 1,
            "POSITION": 0,
            "TEXCOORD_0": 2
          },
          "indices": 3,
          "material": 0,
          "mode": 4
        }
      ]
    },
    {
      "primitives": [
        {
          "attributes": {
            "NORMAL": 5,
            "POSITION": 4,
            "TEXCOORD_0": 6
          },
          "indices": 7,
          "material": 0,
          "mode": 4
        }
      ]
    },
    {
      "primitives": [
        {
          "attributes": {
            "NORMAL": 9,
            "POSITION": 8,
            "TEXCOORD_0": 10
          },
          "indices": 11,
          "material": 0,
          "mode": 4
        }
      ]
    },
    {
      "primitives": [
        {
          "attributes": {
            "NORMAL": 13,
            "POSITION": 12,
            "TEXCOORD_0": 14
          },
          "indices": 15,
          "material": 0,
          "mode": 4
        }
      ]
    },
    {
      "primitives": [
        {
          "attributes": {
            "NORMAL": 17,
            "POSITION": 16,
            "TEXCOORD_0": 18
          },
          "indices": 19,
          "material": 0,
          "mode": 4
        }
      ]
    },
    {
      "primitives": [
        {
          "attributes": {
            "NORMAL": 21,
            "POSITION": 20,
            "TEXCOORD_0": 22
          },
          "indices": 23,
          "material": 0,
          "mode": 4
        }
      ]
    }
  ],
  "nodes": [
    {
      "children": [
        1
      ],
      "name": "RootNode (gltf orientation matrix)",
      "rotation": [
        -0.70710678118654746,
        -0,
        -0,
        0.70710678118654757
      ]
    },
    {
      "children": [
        2
      ],
      "matrix": [
        -0.0019710199548499951,
        0.13012531280687156,
        -2.9949034089119149e-05,
        0,
        0.002053370177669378,
        1.1538405634195351e-06,
        -0.13012404842189085,
        0,
        -0.1301091162679775,
        -0.0019712470884249433,
        -0.0020531520130829817,
        0,
        -0.84439176321029663,
        -28.770179748535156,
        -30.066009521484375,
        1
      ],
      "name": "RootNode (model correction matrix)"
    },
    {
      "children": [
        3,
        4,
        5,
        6,
        7,
        8
      ],
      "name": "Florian_C.obj.cleaner.materialmerger.gles"
    },
    {
      "mesh": 0,
      "name": ""
    },
    {
      "mesh": 1,
      "name": ""
    },
    {
      "mesh": 2,
      "name": ""
    },
    {
      "mesh": 3,
      "name": ""
    },
    {
      "mesh": 4,
      "name": ""
    },
    {
      "mesh": 5,
      "name": ""
    }
  ],
  "samplers": [
    {
      "magFilter": 9729,
      "minFilter": 9987,
      "wrapS": 10497,
      "wrapT": 10497
    }
  ],
  "scene": 0,
  "scenes": [
    {
      "name": "OSG_Scene",
      "nodes": [
        0
      ]
    }
  ],
  "textures": [
    {
      "sampler": 0,
      "source": 0
    }
  ]
}

