{
  "accessors": [
    {
      "bufferView": 2,
      "componentType": 5126,
      "count": 65532,
      "max": [
        1.3715908527374268,
        -9.880311012268066,
        2.661163806915283
      ],
      "min": [
        -1.565248727798462,
        -17.63628578186035,
        -0.5743335485458374
      ],
      "type": "VEC3"
    },
    {
      "bufferView": 2,
      "byteOffset": 786384,
      "componentType": 5126,
      "count": 65532,
      "max": [
        0.9999973177909851,
        0.9998908638954163,
        0.9999629855155945
      ],
      "min": [
        -0.9998956322669983,
        -0.9999889731407166,
        -0.9999937415122986
      ],
      "type": "VEC3"
    },
    {
      "bufferView": 1,
      "componentType": 5126,
      "count": 65532,
      "max": [
        0.9994159936904907,
        0.8382570147514343
      ],
      "min": [
        0.00012199999764561653,
        0.00033000000985339284
      ],
      "type": "VEC2"
    },
    {
      "bufferView": 0,
      "componentType": 5125,
      "count": 305244,
      "type": "SCALAR"
    },
    {
      "bufferView": 2,
      "byteOffset": 1572768,
      "componentType": 5126,
      "count": 65532,
      "max": [
        1.3576123714447021,
        -9.23775577545166,
        2.008052110671997
      ],
      "min": [
        -2.802469491958618,
        -20.003541946411133,
        -0.7458205223083496
      ],
      "type": "VEC3"
    },
    {
      "bufferView": 2,
      "byteOffset": 2359152,
      "componentType": 5126,
      "count": 65532,
      "max": [
        0.9999971985816956,
        0.99997478723526,
        0.9999796748161316
      ],
      "min": [
        -0.9999804496765137,
        -0.9999889731407166,
        -0.9999998211860657
      ],
      "type": "VEC3"
    },
    {
      "bufferView": 1,
      "byteOffset": 524256,
      "componentType": 5126,
      "count": 65532,
      "max": [
        0.9997109770774841,
        0.8370360136032104
      ],
      "min": [
        0.00012199999764561653,
        0.00037900000461377203
      ],
      "type": "VEC2"
    },
    {
      "bufferView": 0,
      "byteOffset": 1220976,
      "componentType": 5125,
      "count": 295524,
      "type": "SCALAR"
    },
    {
      "bufferView": 2,
      "byteOffset": 3145536,
      "componentType": 5126,
      "count": 65532,
      "max": [
        1.2212826013565063,
        -9.222753524780273,
        3.1195504665374756
      ],
      "min": [
        -2.8052852153778076,
        -19.707664489746094,
        -0.7415176630020142
      ],
      "type": "VEC3"
    },
    {
      "bufferView": 2,
      "byteOffset": 3931920,
      "componentType": 5126,
      "count": 65532,
      "max": [
        0.9999993443489075,
        0.9999988675117493,
        0.9999997019767761
      ],
      "min": [
        -0.9999995231628418,
        -0.9999996423721313,
        -0.9999983310699463
      ],
      "type": "VEC3"
    },
    {
      "bufferView": 1,
      "byteOffset": 1048512,
      "componentType": 5126,
      "count": 65532,
      "max": [
        0.9996899962425232,
        0.8431400060653687
      ],
      "min": [
        0.00012199999764561653,
        0.09676799923181534
      ],
      "type": "VEC2"
    },
    {
      "bufferView": 0,
      "byteOffset": 2403072,
      "componentType": 5125,
      "count": 286731,
      "type": "SCALAR"
    },
    {
      "bufferView": 2,
      "byteOffset": 4718304,
      "componentType": 5126,
      "count": 65532,
      "max": [
        1.0114222764968872,
        -9.591458320617676,
        3.1195058822631836
      ],
      "min": [
        -2.799081325531006,
        -20.14168357849121,
        -0.7185110449790955
      ],
      "type": "VEC3"
    },
    {
      "bufferView": 2,
      "byteOffset": 5504688,
      "componentType": 5126,
      "count": 65532,
      "max": [
        0.9999984502792358,
        0.9997093677520752,
        0.9999963641166687
      ],
      "min": [
        -0.9999858736991882,
        -0.9999999403953552,
        -0.9999855160713196
      ],
      "type": "VEC3"
    },
    {
      "bufferView": 1,
      "byteOffset": 1572768,
      "componentType": 5126,
      "count": 65532,
      "max": [
        0.999750018119812,
        0.8370360136032104
      ],
      "min": [
        0.00012199999764561653,
        0.00036899998667649925
      ],
      "type": "VEC2"
    },
    {
      "bufferView": 0,
      "byteOffset": 3549996,
      "componentType": 5125,
      "count": 284001,
      "type": "SCALAR"
    },
    {
      "bufferView": 2,
      "byteOffset": 6291072,
      "componentType": 5126,
      "count": 65533,
      "max": [
        1.3927603960037231,
        -9.266036987304688,
        3.12111234664917
      ],
      "min": [
        -2.803579568862915,
        -20.111644744873047,
        -0.7165102958679199
      ],
      "type": "VEC3"
    },
    {
      "bufferView": 2,
      "byteOffset": 7077468,
      "componentType": 5126,
      "count": 65533,
      "max": [
        0.9999934434890747,
        0.9995690584182739,
        0.9999991655349731
      ],
      "min": [
        -0.9999966025352478,
        -0.9999999403953552,
        -0.9999990463256836
      ],
      "type": "VEC3"
    },
    {
      "bufferView": 1,
      "byteOffset": 2097024,
      "componentType": 5126,
      "count": 65533,
      "max": [
        0.9997590184211731,
        0.8372799754142761
      ],
      "min": [
        0.00012199999764561653,
        0.00022400000307243317
      ],
      "type": "VEC2"
    },
    {
      "bufferView": 0,
      "byteOffset": 4686000,
      "componentType": 5125,
      "count": 265506,
      "type": "SCALAR"
    },
    {
      "bufferView": 2,
      "byteOffset": 7863864,
      "componentType": 5126,
      "count": 7728,
      "max": [
        0.41058528423309326,
        -17.552242279052734,
        1.965207815170288
      ],
      "min": [
        -1.7222874164581299,
        -20.14122772216797,
        0.36028537154197693
      ],
      "type": "VEC3"
    },
    {
      "bufferView": 2,
      "byteOffset": 7956600,
      "componentType": 5126,
      "count": 7728,
      "max": [
        0.9998401999473572,
        0.9997093677520752,
        0.9999311566352844
      ],
      "min": [
        -0.999573826789856,
        -0.9999902248382568,
        -0.9996777772903442
      ],
      "type": "VEC3"
    },
    {
      "bufferView": 1,
      "byteOffset": 2621288,
      "componentType": 5126,
      "count": 7728,
      "max": [
        0.9988170266151428,
        0.8370360136032104
      ],
      "min": [
        0.00012199999764561653,
        0.2455819994211197
      ],
      "type": "VEC2"
    },
    {
      "bufferView": 0,
      "byteOffset": 5748024,
      "componentType": 5125,
      "count": 22992,
      "type": "SCALAR"
    },
    {
      "bufferView": 2,
      "byteOffset": 8049336,
      "componentType": 5126,
      "count": 7482,
      "max": [
        1.2160634994506836,
        -9.222753524780273,
        3.114935874938965
      ],
      "min": [
        -2.804884910583496,
        -9.248320579528809,
        -0.7421644926071167
      ],
      "type": "VEC3"
    },
    {
      "bufferView": 2,
      "byteOffset": 8139120,
      "componentType": 5126,
      "count": 7482,
      "max": [
        0.9999993443489075,
        0.9999988675117493,
        0.9999819993972778
      ],
      "min": [
        -0.9999595284461975,
        -0.2042524516582489,
        -0.9999756813049316
      ],
      "type": "VEC3"
    },
    {
      "bufferView": 1,
      "byteOffset": 2683112,
      "componentType": 5126,
      "count": 7482,
      "max": [
        0.0,
        0.0
      ],
      "min": [
        0.0,
        0.0
      ],
      "type": "VEC2"
    },
    {
      "bufferView": 0,
      "byteOffset": 5839992,
      "componentType": 5125,
      "count": 41856,
      "type": "SCALAR"
    }
  ],
  "asset": {
    "extras": {
      "author": "noe-3d.at (https://sketchfab.com/www.noe-3d.at)",
      "license": "CC-BY-NC-4.0 (http://creativecommons.org/licenses/by-nc/4.0/)",
      "source": "https://sketchfab.com/3d-models/vestalin-210a5ec23ada407ea87d2c7b5b948771",
      "title": "Vestalin"
    },
    "generator": "Sketchfab-10.49.1",
    "version": "2.0"
  },
  "bufferViews": [
    {
      "buffer": 0,
      "byteLength": 6007416,
      "name": "floatBufferViews",
      "target": 34963
    },
    {
      "buffer": 0,
      "byteLength": 2742968,
      "byteOffset": 6007416,
      "byteStride": 8,
      "name": "floatBufferViews",
      "target": 34962
    },
    {
      "buffer": 0,
      "byteLength": 8228904,
      "byteOffset": 8750384,
      "byteStride": 12,
      "name": "floatBufferViews",
      "target": 34962
    }
  ],
  "buffers": [
    {
      "byteLength": 16979288,
      "uri": "scene.bin"
    }
  ],
  "images": [
    {
      "uri": "textures/Vestalin_O_Material_u1_v1_baseColor.png"
    }
  ],
  "materials": [
    {
      "doubleSided": true,
      "name": "Vestalin_O_Material_u1_v1",
      "pbrMetallicRoughness": {
        "baseColorTexture": {
          "index": 0
        },
        "metallicFactor": 0.0
      }
    }
  ],
  "meshes": [
    {
      "name": "Object_0",
      "primitives": [
        {
          "attributes": {
            "NORMAL": 1,
            "POSITION": 0,
            "TEXCOORD_0": 2
          },
          "indices": 3,
          "material": 0,
          "mode": 4
        }
      ]
    },
    {
      "name": "Object_1",
      "primitives": [
        {
          "attributes": {
            "NORMAL": 5,
            "POSITION": 4,
            "TEXCOORD_0": 6
          },
          "indices": 7,
          "material": 0,
          "mode": 4
        }
      ]
    },
    {
      "name": "Object_2",
      "primitives": [
        {
          "attributes": {
            "NORMAL": 9,
            "POSITION": 8,
            "TEXCOORD_0": 10
          },
          "indices": 11,
          "material": 0,
          "mode": 4
        }
      ]
    },
    {
      "name": "Object_3",
      "primitives": [
        {
          "attributes": {
            "NORMAL": 13,
            "POSITION": 12,
            "TEXCOORD_0": 14
          },
          "indices": 15,
          "material": 0,
          "mode": 4
        }
      ]
    },
    {
      "name": "Object_4",
      "primitives": [
        {
          "attributes": {
            "NORMAL": 17,
            "POSITION": 16,
            "TEXCOORD_0": 18
          },
          "indices": 19,
          "material": 0,
          "mode": 4
        }
      ]
    },
    {
      "name": "Object_5",
      "primitives": [
        {
          "attributes": {
            "NORMAL": 21,
            "POSITION": 20,
            "TEXCOORD_0": 22
          },
          "indices": 23,
          "material": 0,
          "mode": 4
        }
      ]
    },
    {
      "name": "Object_6",
      "primitives": [
        {
          "attributes": {
            "NORMAL": 25,
            "POSITION": 24,
            "TEXCOORD_0": 26
          },
          "indices": 27,
          "material": 0,
          "mode": 4
        }
      ]
    }
  ],
  "nodes": [
    {
      "children": [
        1
      ],
      "matrix": [
        0.18245725597341433,
        -2.6120318980158155e-05,
        -0.00401459746902344,
        0.0,
        -3.627789636223805e-05,
        -0.18250083297033903,
        -0.0004613627695911951,
        0.0,
        -0.004014518604014028,
        0.000462049141626233,
        -0.1824566794430007,
        0.0,
        0.023035380989313126,
        -13.497643470764164,
        15.81692790985107,
        1.0
      ],
      "name": "Sketchfab_model"
    },
    {
      "children": [
        2,
        3,
        4,
        5,
        6,
        7,
        8
      ],
      "name": "Vestalin_C.obj.cleaner.materialmerger.gles"
    },
    {
      "mesh": 0,
      "name": "Object_2"
    },
    {
      "mesh": 1,
      "name": "Object_3"
    },
    {
      "mesh": 2,
      "name": "Object_4"
    },
    {
      "mesh": 3,
      "name": "Object_5"
    },
    {
      "mesh": 4,
      "name": "Object_6"
    },
    {
      "mesh": 5,
      "name": "Object_7"
    },
    {
      "mesh": 6,
      "name": "Object_8"
    }
  ],
  "samplers": [
    {
      "magFilter": 9729,
      "minFilter": 9987,
      "wrapS": 10497,
      "wrapT": 10497
    }
  ],
  "scene": 0,
  "scenes": [
    {
      "name": "Sketchfab_Scene",
      "nodes": [
        0
      ]
    }
  ],
  "textures": [
    {
      "sampler": 0,
      "source": 0
    }
  ]
}
